<?xml version="1.0" encoding="UTF-8" standalone="no"?>
<!DOCTYPE svg PUBLIC "-//W3C//DTD SVG 1.1//EN"
 "http://www.w3.org/Graphics/SVG/1.1/DTD/svg11.dtd">
<!-- Generated by graphviz version 2.43.0 (0)
 -->
<!-- Title: uml Pages: 1 -->
<svg width="795pt" height="571pt"
 viewBox="0.00 0.00 795.00 571.00" xmlns="http://www.w3.org/2000/svg" xmlns:xlink="http://www.w3.org/1999/xlink">
<g id="graph0" class="graph" transform="scale(1 1) rotate(0) translate(4 567)">
<title>uml</title>
<polygon fill="white" stroke="transparent" points="-4,4 -4,-567 791,-567 791,4 -4,4"/>
<!-- interface -->
<g id="node1" class="node">
<title>interface</title>
<polygon fill="#fefcbf" stroke="transparent" points="286.5,-77 286.5,-101 608.5,-101 608.5,-77 286.5,-77"/>
<text text-anchor="start" x="416" y="-86.2" font-family="Helvetica,sans-Serif" font-style="oblique" font-size="11.00">«interface»</text>
<polygon fill="#fefcbf" stroke="transparent" points="286.5,-53 286.5,-77 608.5,-77 608.5,-53 286.5,-53"/>
<text text-anchor="start" x="408" y="-63.2" font-family="Helvetica,sans-Serif" font-weight="bold" font-size="11.00">DeviceClient</text>
<text text-anchor="start" x="292.5" y="-38.2" font-family="Helvetica,sans-Serif" font-size="11.00">+ discoverCapabilities(address): Promise&lt;Capabilities&gt;</text>
<text text-anchor="start" x="292.5" y="-14.2" font-family="Helvetica,sans-Serif" font-size="11.00">+ checkHealth(address): Promise&lt;HealthCheckResult&gt;</text>
<polygon fill="none" stroke="black" points="285.5,-4 285.5,-102 609.5,-102 609.5,-4 285.5,-4"/>
</g>
<!-- restimpl -->
<g id="node2" class="node">
<title>restimpl</title>
<polygon fill="#c6f6d5" stroke="transparent" points="286.5,-230 286.5,-254 608.5,-254 608.5,-230 286.5,-230"/>
<text text-anchor="start" x="394.5" y="-240.2" font-family="Helvetica,sans-Serif" font-weight="bold" font-size="11.00">RestDeviceClient</text>
<text text-anchor="start" x="292.5" y="-215.2" font-family="Helvetica,sans-Serif" font-size="11.00">&#45; REQUEST_TIMEOUT_MS: number = 2000</text>
<text text-anchor="start" x="292.5" y="-191.2" font-family="Helvetica,sans-Serif" font-size="11.00">+ discoverCapabilities(address): Promise&lt;Capabilities&gt;</text>
<text text-anchor="start" x="292.5" y="-167.2" font-family="Helvetica,sans-Serif" font-size="11.00">+ checkHealth(address): Promise&lt;HealthCheckResult&gt;</text>
<polygon fill="none" stroke="black" points="285.5,-157 285.5,-255 609.5,-255 609.5,-157 285.5,-157"/>
</g>
<!-- restimpl&#45;&gt;interface -->
<g id="edge1" class="edge">
<title>restimpl&#45;&gt;interface</title>
<path fill="none" stroke="black" d="M447.5,-152.61C447.5,-140.83 447.5,-128.22 447.5,-116.09"/>
<polygon fill="none" stroke="black" points="451,-116.04 447.5,-106.04 444,-116.04 451,-116.04"/>
<text text-anchor="middle" x="470" y="-127" font-family="Helvetica,sans-Serif" font-size="10.00"> &#160;realizes</text>
</g>
<!-- grpcimpl -->
<g id="node3" class="node">
<title>grpcimpl</title>
<polygon fill="white" stroke="transparent" points="645.5,-206 645.5,-230 778.5,-230 778.5,-206 645.5,-206"/>
<text text-anchor="start" x="664.5" y="-215.2" font-family="Helvetica,sans-Serif" font-size="11.00" fill="#999999">GrpcDeviceClient</text>
<text text-anchor="start" x="651.5" y="-191.2" font-family="Helvetica,sans-Serif" font-size="11.00" fill="#999999">step 8 — not built yet</text>
<polygon fill="none" stroke="#999999" points="644,-181 644,-231 779,-231 779,-181 644,-181"/>
</g>
<!-- grpcimpl&#45;&gt;interface -->
<g id="edge2" class="edge">
<title>grpcimpl&#45;&gt;interface</title>
<path fill="none" stroke="#999999" stroke-dasharray="5,2" d="M666.28,-176.83C653.49,-169 639.51,-160.57 626.5,-153 602.72,-139.16 576.93,-124.63 552.54,-111.09"/>
<polygon fill="none" stroke="#999999" points="554.06,-107.93 543.62,-106.15 550.67,-114.06 554.06,-107.93"/>
<text text-anchor="middle" x="636" y="-127" font-family="Helvetica,sans-Serif" font-size="10.00" fill="#999999"> &#160;realizes (future)</text>
</g>
<!-- factory -->
<g id="node4" class="node">
<title>factory</title>
<polygon fill="#bee3f8" stroke="transparent" points="9.5,-418 9.5,-442 368.5,-442 368.5,-418 9.5,-418"/>
<text text-anchor="start" x="161.5" y="-427.2" font-family="Helvetica,sans-Serif" font-style="oblique" font-size="11.00">«module»</text>
<polygon fill="#bee3f8" stroke="transparent" points="9.5,-394 9.5,-418 368.5,-418 368.5,-394 9.5,-394"/>
<text text-anchor="start" x="140.5" y="-404.2" font-family="Helvetica,sans-Serif" font-weight="bold" font-size="11.00">clientFactory.ts</text>
<text text-anchor="start" x="15.5" y="-380.2" font-family="Helvetica,sans-Serif" font-size="11.00">&#45; restClient: RestDeviceClient    </text>
<text text-anchor="start" x="193.5" y="-380.2" font-family="Helvetica,sans-Serif" font-style="oblique" font-size="9.00">(module&#45;level singleton — built once)</text>
<text text-anchor="start" x="15.5" y="-355.2" font-family="Helvetica,sans-Serif" font-size="11.00">+ clientFor(protocol): DeviceClient</text>
<text text-anchor="start" x="15.5" y="-331.2" font-family="Helvetica,sans-Serif" font-size="11.00">+ discoverProtocol(address): Promise&lt;...&gt;</text>
<polygon fill="none" stroke="black" points="8,-321 8,-443 369,-443 369,-321 8,-321"/>
</g>
<!-- factory&#45;&gt;interface -->
<g id="edge4" class="edge">
<title>factory&#45;&gt;interface</title>
<path fill="none" stroke="black" stroke-dasharray="5,2" d="M167.4,-316.94C155.4,-267.73 148.56,-200.4 181.5,-153 202.45,-122.85 233.73,-101.87 267.55,-87.27"/>
<polygon fill="black" stroke="black" points="277.16,-83.32 269.62,-91.28 272.53,-85.22 267.91,-87.12 267.91,-87.12 267.91,-87.12 272.53,-85.22 266.2,-82.96 277.16,-83.32 277.16,-83.32"/>
<text text-anchor="start" x="181.5" y="-220" font-family="Helvetica,sans-Serif" font-size="10.00"> &#160;returns</text>
<text text-anchor="start" x="181.5" y="-209" font-family="Helvetica,sans-Serif" font-size="10.00"> &#160;(as the interface</text>
<text text-anchor="start" x="181.5" y="-198" font-family="Helvetica,sans-Serif" font-size="10.00"> &#160;type, not the</text>
<text text-anchor="start" x="181.5" y="-187" font-family="Helvetica,sans-Serif" font-size="10.00"> &#160;concrete class)</text>
</g>
<!-- factory&#45;&gt;restimpl -->
<g id="edge3" class="edge">
<title>factory&#45;&gt;restimpl</title>
<path fill="none" stroke="black" d="M283.84,-316.95C308.69,-300.26 335.34,-282.35 359.77,-265.94"/>
<polygon fill="black" stroke="black" points="359.77,-265.94 362.52,-259.27 369.73,-259.24 366.98,-265.91 359.77,-265.94"/>
<text text-anchor="start" x="341.5" y="-291" font-family="Helvetica,sans-Serif" font-size="10.00"> &#160;owns 1 instance</text>
<text text-anchor="start" x="341.5" y="-280" font-family="Helvetica,sans-Serif" font-size="10.00"> &#160;(composition)</text>
</g>
<!-- service -->
<g id="node5" class="node">
<title>service</title>
<polygon fill="#e2e8f0" stroke="transparent" points="63.5,-534 63.5,-558 313.5,-558 313.5,-534 63.5,-534"/>
<text text-anchor="start" x="131.5" y="-544.2" font-family="Helvetica,sans-Serif" font-weight="bold" font-size="11.00">MonitoringService</text>
<text text-anchor="start" x="69.5" y="-519.2" font-family="Helvetica,sans-Serif" font-size="11.00">+ registerDevice(input): Promise&lt;Device&gt;</text>
<polygon fill="none" stroke="black" points="62.5,-509 62.5,-559 314.5,-559 314.5,-509 62.5,-509"/>
</g>
<!-- service&#45;&gt;factory -->
<g id="edge5" class="edge">
<title>service&#45;&gt;factory</title>
<path fill="none" stroke="black" d="M188.5,-504.79C188.5,-491.29 188.5,-474.43 188.5,-457.6"/>
<polygon fill="black" stroke="black" points="188.5,-447.16 193,-457.16 188.5,-452.16 188.5,-457.16 188.5,-457.16 188.5,-457.16 188.5,-452.16 184,-457.16 188.5,-447.16 188.5,-447.16"/>
<text text-anchor="start" x="188.5" y="-479" font-family="Helvetica,sans-Serif" font-size="10.00"> &#160;calls</text>
<text text-anchor="start" x="188.5" y="-468" font-family="Helvetica,sans-Serif" font-size="10.00"> &#160;discoverProtocol()</text>
</g>
</g>
</svg>
