<?xml version="1.0" encoding="UTF-8" standalone="no"?>
<!DOCTYPE svg PUBLIC "-//W3C//DTD SVG 1.1//EN"
 "http://www.w3.org/Graphics/SVG/1.1/DTD/svg11.dtd">
<!-- Generated by graphviz version 2.43.0 (0)
 -->
<!-- Title: architecture Pages: 1 -->
<svg width="1089pt" height="843pt"
 viewBox="0.00 0.00 1089.00 843.25" xmlns="http://www.w3.org/2000/svg" xmlns:xlink="http://www.w3.org/1999/xlink">
<g id="graph0" class="graph" transform="scale(1 1) rotate(0) translate(4 839.25)">
<title>architecture</title>
<polygon fill="white" stroke="transparent" points="-4,4 -4,-839.25 1085,-839.25 1085,4 -4,4"/>
<g id="clust1" class="cluster">
<title>cluster_legend</title>
<polygon fill="white" stroke="#999999" stroke-dasharray="5,2" points="8,-629.25 8,-824.25 184,-824.25 184,-629.25 8,-629.25"/>
<text text-anchor="middle" x="96" y="-811.45" font-family="Helvetica,sans-Serif" font-weight="bold" font-size="11.00">Legend</text>
</g>
<g id="clust2" class="cluster">
<title>cluster_client</title>
<polygon fill="white" stroke="#999999" stroke-dasharray="5,2" points="558,-752.25 558,-827.25 722,-827.25 722,-752.25 558,-752.25"/>
<text text-anchor="middle" x="640" y="-812.05" font-family="Helvetica,sans-Serif" font-weight="bold" font-size="14.00">Clients</text>
</g>
<g id="clust3" class="cluster">
<title>cluster_service</title>
<path fill="white" stroke="#2b6cb0" stroke-width="2" d="M204,-170.38C204,-170.38 729,-170.38 729,-170.38 735,-170.38 741,-176.38 741,-182.38 741,-182.38 741,-711.25 741,-711.25 741,-717.25 735,-723.25 729,-723.25 729,-723.25 204,-723.25 204,-723.25 198,-723.25 192,-717.25 192,-711.25 192,-711.25 192,-182.38 192,-182.38 192,-176.38 198,-170.38 204,-170.38"/>
<text text-anchor="middle" x="466.5" y="-708.05" font-family="Helvetica,sans-Serif" font-weight="bold" font-size="14.00">monitoring&#45;service/rest &#160;(steps 3, 4, 5, 6 — DONE)</text>
</g>
<g id="clust4" class="cluster">
<title>cluster_datasource</title>
<path fill="white" stroke="#2b6cb0" stroke-width="2" d="M761,-326.25C761,-326.25 1061,-326.25 1061,-326.25 1067,-326.25 1073,-332.25 1073,-338.25 1073,-338.25 1073,-414.25 1073,-414.25 1073,-420.25 1067,-426.25 1061,-426.25 1061,-426.25 761,-426.25 761,-426.25 755,-426.25 749,-420.25 749,-414.25 749,-414.25 749,-338.25 749,-338.25 749,-332.25 755,-326.25 761,-326.25"/>
<text text-anchor="middle" x="911" y="-411.05" font-family="Helvetica,sans-Serif" font-weight="bold" font-size="14.00">datasource&#45;module &#160;(step 2&#45;4 — DONE)</text>
</g>
<g id="clust5" class="cluster">
<title>cluster_data</title>
<polygon fill="white" stroke="#999999" stroke-dasharray="5,2" points="752,-150 752,-290.75 962,-290.75 962,-150 752,-150"/>
<text text-anchor="middle" x="857" y="-275.55" font-family="Helvetica,sans-Serif" font-weight="bold" font-size="14.00">Persistence</text>
</g>
<g id="clust6" class="cluster">
<title>cluster_devices</title>
<polygon fill="white" stroke="#999999" stroke-dasharray="5,2" points="120,-8 120,-121 598,-121 598,-8 120,-8"/>
<text text-anchor="middle" x="359" y="-105.8" font-family="Helvetica,sans-Serif" font-weight="bold" font-size="14.00">Devices (step 1 — DONE, all 6 running)</text>
</g>
<!-- l1 -->
<g id="node1" class="node">
<title>l1</title>
<path fill="#c6f6d5" stroke="black" d="M164,-796.25C164,-796.25 28,-796.25 28,-796.25 22,-796.25 16,-790.25 16,-784.25 16,-784.25 16,-772.25 16,-772.25 16,-766.25 22,-760.25 28,-760.25 28,-760.25 164,-760.25 164,-760.25 170,-760.25 176,-766.25 176,-772.25 176,-772.25 176,-784.25 176,-784.25 176,-790.25 170,-796.25 164,-796.25"/>
<text text-anchor="middle" x="96" y="-775.75" font-family="Helvetica,sans-Serif" font-size="10.00">Done, verified (steps 1&#45;6)</text>
</g>
<!-- l2 -->
<g id="node2" class="node">
<title>l2</title>
<path fill="white" stroke="#999999" stroke-dasharray="5,2" d="M163.5,-673.25C163.5,-673.25 28.5,-673.25 28.5,-673.25 22.5,-673.25 16.5,-667.25 16.5,-661.25 16.5,-661.25 16.5,-649.25 16.5,-649.25 16.5,-643.25 22.5,-637.25 28.5,-637.25 28.5,-637.25 163.5,-637.25 163.5,-637.25 169.5,-637.25 175.5,-643.25 175.5,-649.25 175.5,-649.25 175.5,-661.25 175.5,-661.25 175.5,-667.25 169.5,-673.25 163.5,-673.25"/>
<text text-anchor="middle" x="96" y="-652.75" font-family="Helvetica,sans-Serif" font-size="10.00">Not built yet (steps 6&#45;10)</text>
</g>
<!-- l1&#45;&gt;l2 -->
<!-- curl -->
<g id="node3" class="node">
<title>curl</title>
<path fill="#c6f6d5" stroke="black" d="M702,-796.25C702,-796.25 578,-796.25 578,-796.25 572,-796.25 566,-790.25 566,-784.25 566,-784.25 566,-772.25 566,-772.25 566,-766.25 572,-760.25 578,-760.25 578,-760.25 702,-760.25 702,-760.25 708,-760.25 714,-766.25 714,-772.25 714,-772.25 714,-784.25 714,-784.25 714,-790.25 708,-796.25 702,-796.25"/>
<text text-anchor="middle" x="640" y="-775.15" font-family="Helvetica,sans-Serif" font-size="12.00">curl / demo screen</text>
</g>
<!-- http -->
<g id="node4" class="node">
<title>http</title>
<path fill="#c6f6d5" stroke="black" d="M721.5,-692.25C721.5,-692.25 558.5,-692.25 558.5,-692.25 552.5,-692.25 546.5,-686.25 546.5,-680.25 546.5,-680.25 546.5,-630.25 546.5,-630.25 546.5,-624.25 552.5,-618.25 558.5,-618.25 558.5,-618.25 721.5,-618.25 721.5,-618.25 727.5,-618.25 733.5,-624.25 733.5,-630.25 733.5,-630.25 733.5,-680.25 733.5,-680.25 733.5,-686.25 727.5,-692.25 721.5,-692.25"/>
<text text-anchor="middle" x="640" y="-671.65" font-family="Helvetica,sans-Serif" font-size="12.00">HTTP layer</text>
<text text-anchor="middle" x="640" y="-658.65" font-family="Helvetica,sans-Serif" font-size="12.00">(Express)</text>
<text text-anchor="middle" x="640" y="-645.65" font-family="Helvetica,sans-Serif" font-size="12.00">validation, error mapping</text>
<text text-anchor="middle" x="640" y="-632.65" font-family="Helvetica,sans-Serif" font-size="12.00">step 4</text>
</g>
<!-- curl&#45;&gt;http -->
<g id="edge2" class="edge">
<title>curl&#45;&gt;http</title>
<path fill="none" stroke="#555555" d="M640,-760.17C640,-745.18 640,-722.67 640,-702.43"/>
<polygon fill="#555555" stroke="#555555" points="643.5,-702.41 640,-692.41 636.5,-702.41 643.5,-702.41"/>
<text text-anchor="middle" x="669.5" y="-734.25" font-family="Helvetica,sans-Serif" font-size="10.00"> &#160;HTTP/JSON</text>
</g>
<!-- service -->
<g id="node5" class="node">
<title>service</title>
<path fill="#c6f6d5" stroke="black" d="M720.5,-581.25C720.5,-581.25 569.5,-581.25 569.5,-581.25 563.5,-581.25 557.5,-575.25 557.5,-569.25 557.5,-569.25 557.5,-519.25 557.5,-519.25 557.5,-513.25 563.5,-507.25 569.5,-507.25 569.5,-507.25 720.5,-507.25 720.5,-507.25 726.5,-507.25 732.5,-513.25 732.5,-519.25 732.5,-519.25 732.5,-569.25 732.5,-569.25 732.5,-575.25 726.5,-581.25 720.5,-581.25"/>
<text text-anchor="middle" x="645" y="-560.65" font-family="Helvetica,sans-Serif" font-size="12.00">MonitoringService</text>
<text text-anchor="middle" x="645" y="-547.65" font-family="Helvetica,sans-Serif" font-size="12.00">register/list/get/remove</text>
<text text-anchor="middle" x="645" y="-534.65" font-family="Helvetica,sans-Serif" font-size="12.00">+ discovery on register</text>
<text text-anchor="middle" x="645" y="-521.65" font-family="Helvetica,sans-Serif" font-size="12.00">step 4 + 5</text>
</g>
<!-- http&#45;&gt;service -->
<g id="edge3" class="edge">
<title>http&#45;&gt;service</title>
<path fill="none" stroke="#555555" d="M641.66,-617.95C642.05,-609.5 642.47,-600.38 642.88,-591.55"/>
<polygon fill="#555555" stroke="#555555" points="646.38,-591.54 643.34,-581.39 639.39,-591.22 646.38,-591.54"/>
</g>
<!-- dc_iface -->
<g id="node8" class="node">
<title>dc_iface</title>
<path fill="#c6f6d5" stroke="black" stroke-dasharray="5,2" d="M544.5,-395.25C544.5,-395.25 457.5,-395.25 457.5,-395.25 451.5,-395.25 445.5,-389.25 445.5,-383.25 445.5,-383.25 445.5,-346.25 445.5,-346.25 445.5,-340.25 451.5,-334.25 457.5,-334.25 457.5,-334.25 544.5,-334.25 544.5,-334.25 550.5,-334.25 556.5,-340.25 556.5,-346.25 556.5,-346.25 556.5,-383.25 556.5,-383.25 556.5,-389.25 550.5,-395.25 544.5,-395.25"/>
<text text-anchor="middle" x="501" y="-374.65" font-family="Helvetica,sans-Serif" font-size="12.00">DeviceClient</text>
<text text-anchor="middle" x="501" y="-361.65" font-family="Helvetica,sans-Serif" font-size="12.00">(interface)</text>
<text text-anchor="middle" x="501" y="-348.65" font-family="Helvetica,sans-Serif" font-size="12.00">step 5</text>
</g>
<!-- service&#45;&gt;dc_iface -->
<g id="edge5" class="edge">
<title>service&#45;&gt;dc_iface</title>
<path fill="none" stroke="#555555" d="M615.51,-506.9C590.96,-476.64 556.14,-433.72 531.36,-403.17"/>
<polygon fill="#555555" stroke="#555555" points="533.98,-400.85 524.97,-395.29 528.55,-405.26 533.98,-400.85"/>
<text text-anchor="middle" x="632.5" y="-464.75" font-family="Helvetica,sans-Serif" font-size="10.00"> &#160;discovery on</text>
<text text-anchor="middle" x="632.5" y="-453.75" font-family="Helvetica,sans-Serif" font-size="10.00"> &#160;registration</text>
</g>
<!-- sqlservice -->
<g id="node13" class="node">
<title>sqlservice</title>
<path fill="#c6f6d5" stroke="black" d="M944.5,-395.25C944.5,-395.25 769.5,-395.25 769.5,-395.25 763.5,-395.25 757.5,-389.25 757.5,-383.25 757.5,-383.25 757.5,-346.25 757.5,-346.25 757.5,-340.25 763.5,-334.25 769.5,-334.25 769.5,-334.25 944.5,-334.25 944.5,-334.25 950.5,-334.25 956.5,-340.25 956.5,-346.25 956.5,-346.25 956.5,-383.25 956.5,-383.25 956.5,-389.25 950.5,-395.25 944.5,-395.25"/>
<text text-anchor="middle" x="857" y="-374.65" font-family="Helvetica,sans-Serif" font-size="12.00">SQLService</text>
<text text-anchor="middle" x="857" y="-361.65" font-family="Helvetica,sans-Serif" font-size="12.00">(data&#45;source/sql&#45;service.ts)</text>
<text text-anchor="middle" x="857" y="-348.65" font-family="Helvetica,sans-Serif" font-size="12.00">verified: 25 checks pass</text>
</g>
<!-- service&#45;&gt;sqlservice -->
<g id="edge4" class="edge">
<title>service&#45;&gt;sqlservice</title>
<path fill="none" stroke="#555555" d="M732.72,-517.59C749.52,-510.16 766.16,-500.83 780,-489.25 807.21,-466.47 827.74,-431.52 840.73,-404.6"/>
<polygon fill="#555555" stroke="#555555" points="843.94,-405.99 845.01,-395.45 837.6,-403.03 843.94,-405.99"/>
<text text-anchor="middle" x="860.5" y="-464.75" font-family="Helvetica,sans-Serif" font-size="10.00"> &#160;in&#45;process</text>
<text text-anchor="middle" x="860.5" y="-453.75" font-family="Helvetica,sans-Serif" font-size="10.00"> &#160;(not network)</text>
</g>
<!-- poller -->
<g id="node6" class="node">
<title>poller</title>
<path fill="white" stroke="#999999" stroke-dasharray="5,2" d="M527.5,-581.25C527.5,-581.25 394.5,-581.25 394.5,-581.25 388.5,-581.25 382.5,-575.25 382.5,-569.25 382.5,-569.25 382.5,-519.25 382.5,-519.25 382.5,-513.25 388.5,-507.25 394.5,-507.25 394.5,-507.25 527.5,-507.25 527.5,-507.25 533.5,-507.25 539.5,-513.25 539.5,-519.25 539.5,-519.25 539.5,-569.25 539.5,-569.25 539.5,-575.25 533.5,-581.25 527.5,-581.25"/>
<text text-anchor="middle" x="461" y="-560.65" font-family="Helvetica,sans-Serif" font-size="12.00" fill="#999999">Poller</text>
<text text-anchor="middle" x="461" y="-547.65" font-family="Helvetica,sans-Serif" font-size="12.00" fill="#999999">retry + backoff,</text>
<text text-anchor="middle" x="461" y="-534.65" font-family="Helvetica,sans-Serif" font-size="12.00" fill="#999999">state transitions</text>
<text text-anchor="middle" x="461" y="-521.65" font-family="Helvetica,sans-Serif" font-size="12.00" fill="#999999">step 7 — NOT BUILT</text>
</g>
<!-- statemachine -->
<g id="node7" class="node">
<title>statemachine</title>
<path fill="#c6f6d5" stroke="black" d="M415.5,-401.75C415.5,-401.75 212.5,-401.75 212.5,-401.75 206.5,-401.75 200.5,-395.75 200.5,-389.75 200.5,-389.75 200.5,-339.75 200.5,-339.75 200.5,-333.75 206.5,-327.75 212.5,-327.75 212.5,-327.75 415.5,-327.75 415.5,-327.75 421.5,-327.75 427.5,-333.75 427.5,-339.75 427.5,-339.75 427.5,-389.75 427.5,-389.75 427.5,-395.75 421.5,-401.75 415.5,-401.75"/>
<text text-anchor="middle" x="314" y="-381.15" font-family="Helvetica,sans-Serif" font-size="12.00">State Machine</text>
<text text-anchor="middle" x="314" y="-368.15" font-family="Helvetica,sans-Serif" font-size="12.00">reachable/suspect/down</text>
<text text-anchor="middle" x="314" y="-355.15" font-family="Helvetica,sans-Serif" font-size="12.00">rest/src/domain/stateMachine.ts</text>
<text text-anchor="middle" x="314" y="-342.15" font-family="Helvetica,sans-Serif" font-size="12.00">step 6 — DONE, 16 tests</text>
</g>
<!-- poller&#45;&gt;statemachine -->
<g id="edge8" class="edge">
<title>poller&#45;&gt;statemachine</title>
<path fill="none" stroke="#2b6cb0" stroke-dasharray="5,2" d="M411.34,-507.04C404.86,-501.41 398.56,-495.4 393,-489.25 371.58,-465.53 352.17,-435.36 337.94,-410.78"/>
<polygon fill="#2b6cb0" stroke="#2b6cb0" points="340.93,-408.96 332.94,-402 334.85,-412.42 340.93,-408.96"/>
<text text-anchor="middle" x="431.5" y="-481.25" font-family="Helvetica,sans-Serif" font-size="10.00"> &#160;step 7 will</text>
<text text-anchor="middle" x="431.5" y="-470.25" font-family="Helvetica,sans-Serif" font-size="10.00"> &#160;import this</text>
<text text-anchor="middle" x="431.5" y="-459.25" font-family="Helvetica,sans-Serif" font-size="10.00"> &#160;directly (same</text>
<text text-anchor="middle" x="431.5" y="-448.25" font-family="Helvetica,sans-Serif" font-size="10.00"> &#160;module, not a</text>
<text text-anchor="start" x="393" y="-437.25" font-family="Helvetica,sans-Serif" font-size="10.00"> &#160;network call)</text>
</g>
<!-- poller&#45;&gt;dc_iface -->
<g id="edge7" class="edge">
<title>poller&#45;&gt;dc_iface</title>
<path fill="none" stroke="#999999" stroke-dasharray="5,2" d="M469.19,-506.9C475.87,-477.29 485.27,-435.54 492.12,-405.14"/>
<polygon fill="#999999" stroke="#999999" points="495.56,-405.82 494.34,-395.29 488.73,-404.28 495.56,-405.82"/>
<text text-anchor="middle" x="513" y="-464.75" font-family="Helvetica,sans-Serif" font-size="10.00"> &#160;scheduled</text>
<text text-anchor="middle" x="513" y="-453.75" font-family="Helvetica,sans-Serif" font-size="10.00"> &#160;checks</text>
</g>
<!-- cp_iface -->
<g id="node9" class="node">
<title>cp_iface</title>
<path fill="white" stroke="#999999" stroke-dasharray="5,2" d="M719.5,-395.25C719.5,-395.25 586.5,-395.25 586.5,-395.25 580.5,-395.25 574.5,-389.25 574.5,-383.25 574.5,-383.25 574.5,-346.25 574.5,-346.25 574.5,-340.25 580.5,-334.25 586.5,-334.25 586.5,-334.25 719.5,-334.25 719.5,-334.25 725.5,-334.25 731.5,-340.25 731.5,-346.25 731.5,-346.25 731.5,-383.25 731.5,-383.25 731.5,-389.25 725.5,-395.25 719.5,-395.25"/>
<text text-anchor="middle" x="653" y="-374.65" font-family="Helvetica,sans-Serif" font-size="12.00" fill="#999999">ChecksumProvider</text>
<text text-anchor="middle" x="653" y="-361.65" font-family="Helvetica,sans-Serif" font-size="12.00" fill="#999999">(interface)</text>
<text text-anchor="middle" x="653" y="-348.65" font-family="Helvetica,sans-Serif" font-size="12.00" fill="#999999">step 9 — NOT BUILT</text>
</g>
<!-- poller&#45;&gt;cp_iface -->
<g id="edge9" class="edge">
<title>poller&#45;&gt;cp_iface</title>
<path fill="none" stroke="#999999" stroke-dasharray="5,2" d="M522.95,-506.99C530.69,-501.44 538.25,-495.48 545,-489.25 567.61,-468.4 566.96,-457.58 587,-434.25 596,-423.77 606.17,-412.82 615.78,-402.83"/>
<polygon fill="#999999" stroke="#999999" points="618.54,-405.01 622.99,-395.4 613.51,-400.14 618.54,-405.01"/>
</g>
<!-- poller&#45;&gt;sqlservice -->
<g id="edge6" class="edge">
<title>poller&#45;&gt;sqlservice</title>
<path fill="none" stroke="#999999" stroke-dasharray="5,2" d="M539.84,-509.95C542.91,-508.98 545.98,-508.08 549,-507.25 601.86,-492.77 619.83,-508.88 671,-489.25 724.83,-468.6 778.9,-430.25 814.76,-401.74"/>
<polygon fill="#999999" stroke="#999999" points="816.98,-404.45 822.58,-395.45 812.59,-399 816.98,-404.45"/>
</g>
<!-- rest_client -->
<g id="node10" class="node">
<title>rest_client</title>
<path fill="#c6f6d5" stroke="black" d="M352,-239.38C352,-239.38 212,-239.38 212,-239.38 206,-239.38 200,-233.38 200,-227.38 200,-227.38 200,-190.38 200,-190.38 200,-184.38 206,-178.38 212,-178.38 212,-178.38 352,-178.38 352,-178.38 358,-178.38 364,-184.38 364,-190.38 364,-190.38 364,-227.38 364,-227.38 364,-233.38 358,-239.38 352,-239.38"/>
<text text-anchor="middle" x="282" y="-218.78" font-family="Helvetica,sans-Serif" font-size="12.00">RestDeviceClient</text>
<text text-anchor="middle" x="282" y="-205.78" font-family="Helvetica,sans-Serif" font-size="12.00">DONE, tested against</text>
<text text-anchor="middle" x="282" y="-192.78" font-family="Helvetica,sans-Serif" font-size="12.00">real devices — step 5</text>
</g>
<!-- dc_iface&#45;&gt;rest_client -->
<g id="edge10" class="edge">
<title>dc_iface&#45;&gt;rest_client</title>
<path fill="none" stroke="#555555" stroke-dasharray="5,2" d="M449.93,-334.22C445.23,-331.52 440.53,-328.83 436,-326.25 408.08,-310.33 399.16,-309.42 373,-290.75 354.52,-277.56 335.52,-261.2 319.7,-246.65"/>
<polygon fill="#555555" stroke="#555555" points="321.91,-243.93 312.21,-239.68 317.14,-249.05 321.91,-243.93"/>
</g>
<!-- grpc_client -->
<g id="node11" class="node">
<title>grpc_client</title>
<path fill="white" stroke="#999999" stroke-dasharray="5,2" d="M527.5,-232.88C527.5,-232.88 394.5,-232.88 394.5,-232.88 388.5,-232.88 382.5,-226.88 382.5,-220.88 382.5,-220.88 382.5,-196.88 382.5,-196.88 382.5,-190.88 388.5,-184.88 394.5,-184.88 394.5,-184.88 527.5,-184.88 527.5,-184.88 533.5,-184.88 539.5,-190.88 539.5,-196.88 539.5,-196.88 539.5,-220.88 539.5,-220.88 539.5,-226.88 533.5,-232.88 527.5,-232.88"/>
<text text-anchor="middle" x="461" y="-212.28" font-family="Helvetica,sans-Serif" font-size="12.00" fill="#999999">GrpcDeviceClient</text>
<text text-anchor="middle" x="461" y="-199.28" font-family="Helvetica,sans-Serif" font-size="12.00" fill="#999999">step 8 — NOT BUILT</text>
</g>
<!-- dc_iface&#45;&gt;grpc_client -->
<g id="edge11" class="edge">
<title>dc_iface&#45;&gt;grpc_client</title>
<path fill="none" stroke="#999999" stroke-dasharray="5,2" d="M493.29,-334.08C486.48,-307.91 476.58,-269.82 469.54,-242.73"/>
<polygon fill="#999999" stroke="#999999" points="472.9,-241.73 466.99,-232.93 466.12,-243.49 472.9,-241.73"/>
</g>
<!-- stub_checksum -->
<g id="node12" class="node">
<title>stub_checksum</title>
<path fill="white" stroke="#999999" stroke-dasharray="5,2" d="M720.5,-232.88C720.5,-232.88 569.5,-232.88 569.5,-232.88 563.5,-232.88 557.5,-226.88 557.5,-220.88 557.5,-220.88 557.5,-196.88 557.5,-196.88 557.5,-190.88 563.5,-184.88 569.5,-184.88 569.5,-184.88 720.5,-184.88 720.5,-184.88 726.5,-184.88 732.5,-190.88 732.5,-196.88 732.5,-196.88 732.5,-220.88 732.5,-220.88 732.5,-226.88 726.5,-232.88 720.5,-232.88"/>
<text text-anchor="middle" x="645" y="-212.28" font-family="Helvetica,sans-Serif" font-size="12.00" fill="#999999">StubChecksumProvider</text>
<text text-anchor="middle" x="645" y="-199.28" font-family="Helvetica,sans-Serif" font-size="12.00" fill="#999999">step 9 — NOT BUILT</text>
</g>
<!-- cp_iface&#45;&gt;stub_checksum -->
<g id="edge12" class="edge">
<title>cp_iface&#45;&gt;stub_checksum</title>
<path fill="none" stroke="#999999" stroke-dasharray="5,2" d="M651.46,-334.08C650.1,-308.02 648.13,-270.15 646.73,-243.09"/>
<polygon fill="#999999" stroke="#999999" points="650.21,-242.74 646.2,-232.93 643.22,-243.1 650.21,-242.74"/>
</g>
<!-- rest_devices -->
<g id="node15" class="node">
<title>rest_devices</title>
<path fill="#c6f6d5" stroke="black" d="M333.5,-90C333.5,-90 140.5,-90 140.5,-90 134.5,-90 128.5,-84 128.5,-78 128.5,-78 128.5,-28 128.5,-28 128.5,-22 134.5,-16 140.5,-16 140.5,-16 333.5,-16 333.5,-16 339.5,-16 345.5,-22 345.5,-28 345.5,-28 345.5,-78 345.5,-78 345.5,-84 339.5,-90 333.5,-90"/>
<text text-anchor="middle" x="237" y="-69.4" font-family="Helvetica,sans-Serif" font-size="12.00">4x REST devices</text>
<text text-anchor="middle" x="237" y="-56.4" font-family="Helvetica,sans-Serif" font-size="12.00">router, switch,</text>
<text text-anchor="middle" x="237" y="-43.4" font-family="Helvetica,sans-Serif" font-size="12.00">camera&#45;rest, door&#45;access&#45;rest</text>
<text text-anchor="middle" x="237" y="-30.4" font-family="Helvetica,sans-Serif" font-size="12.00">wired + verified</text>
</g>
<!-- rest_client&#45;&gt;rest_devices -->
<g id="edge13" class="edge">
<title>rest_client&#45;&gt;rest_devices</title>
<path fill="none" stroke="#555555" d="M273.32,-178.21C266.83,-156 257.83,-125.22 250.41,-99.86"/>
<polygon fill="#555555" stroke="#555555" points="253.72,-98.69 247.55,-90.08 247,-100.66 253.72,-98.69"/>
<text text-anchor="middle" x="298.5" y="-132" font-family="Helvetica,sans-Serif" font-size="10.00"> &#160;HTTP, verified</text>
</g>
<!-- grpc_devices -->
<g id="node16" class="node">
<title>grpc_devices</title>
<path fill="#c6f6d5" stroke="black" d="M578,-90C578,-90 376,-90 376,-90 370,-90 364,-84 364,-78 364,-78 364,-28 364,-28 364,-22 370,-16 376,-16 376,-16 578,-16 578,-16 584,-16 590,-22 590,-28 590,-28 590,-78 590,-78 590,-84 584,-90 578,-90"/>
<text text-anchor="middle" x="477" y="-69.4" font-family="Helvetica,sans-Serif" font-size="12.00">2x gRPC devices</text>
<text text-anchor="middle" x="477" y="-56.4" font-family="Helvetica,sans-Serif" font-size="12.00">camera&#45;grpc, door&#45;access&#45;grpc</text>
<text text-anchor="middle" x="477" y="-43.4" font-family="Helvetica,sans-Serif" font-size="12.00">running, but NOT YET called</text>
<text text-anchor="middle" x="477" y="-30.4" font-family="Helvetica,sans-Serif" font-size="12.00">by the service (step 8)</text>
</g>
<!-- grpc_client&#45;&gt;grpc_devices -->
<g id="edge14" class="edge">
<title>grpc_client&#45;&gt;grpc_devices</title>
<path fill="none" stroke="#999999" stroke-dasharray="5,2" d="M463.4,-184.84C465.72,-162.51 469.3,-128.02 472.21,-100.05"/>
<polygon fill="#999999" stroke="#999999" points="475.7,-100.38 473.25,-90.08 468.73,-99.66 475.7,-100.38"/>
<text text-anchor="middle" x="504.5" y="-132" font-family="Helvetica,sans-Serif" font-size="10.00"> &#160;not wired yet</text>
</g>
<!-- postgres -->
<g id="node14" class="node">
<title>postgres</title>
<path fill="#c6f6d5" stroke="black" d="M953.5,-250.4C953.5,-255.49 910.25,-259.63 857,-259.63 803.75,-259.63 760.5,-255.49 760.5,-250.4 760.5,-250.4 760.5,-167.35 760.5,-167.35 760.5,-162.26 803.75,-158.12 857,-158.12 910.25,-158.12 953.5,-162.26 953.5,-167.35 953.5,-167.35 953.5,-250.4 953.5,-250.4"/>
<path fill="none" stroke="black" d="M953.5,-250.4C953.5,-245.31 910.25,-241.17 857,-241.17 803.75,-241.17 760.5,-245.31 760.5,-250.4"/>
<text text-anchor="middle" x="857" y="-225.28" font-family="Helvetica,sans-Serif" font-size="12.00">Postgres</text>
<text text-anchor="middle" x="857" y="-212.28" font-family="Helvetica,sans-Serif" font-size="12.00">devices + diagnostics</text>
<text text-anchor="middle" x="857" y="-199.28" font-family="Helvetica,sans-Serif" font-size="12.00">step 2 — schema verified,</text>
<text text-anchor="middle" x="857" y="-186.28" font-family="Helvetica,sans-Serif" font-size="12.00">13/13 constraint checks</text>
</g>
<!-- sqlservice&#45;&gt;postgres -->
<g id="edge15" class="edge">
<title>sqlservice&#45;&gt;postgres</title>
<path fill="none" stroke="#555555" d="M857,-334.08C857,-315.91 857,-292 857,-270.01"/>
<polygon fill="#555555" stroke="#555555" points="860.5,-269.74 857,-259.74 853.5,-269.74 860.5,-269.74"/>
<text text-anchor="middle" x="891" y="-301.75" font-family="Helvetica,sans-Serif" font-size="10.00"> &#160;SQL, verified</text>
</g>
</g>
</svg>
